<svg width="14" height="14" viewBox="0 0 14 14" fill="none" xmlns="http://www.w3.org/2000/svg">
<path d="M11.6668 3.33348H9.66683V2.66681C9.66683 2.13638 9.45612 1.62767 9.08104 1.2526C8.70597 0.877523 8.19726 0.666809 7.66683 0.666809H6.3335C5.80306 0.666809 5.29436 0.877523 4.91928 1.2526C4.54421 1.62767 4.3335 2.13638 4.3335 2.66681V3.33348H2.3335C1.80306 3.33348 1.29436 3.54419 0.919283 3.91926C0.54421 4.29433 0.333496 4.80304 0.333496 5.33348V11.3335C0.333496 11.8639 0.54421 12.3726 0.919283 12.7477C1.29436 13.1228 1.80306 13.3335 2.3335 13.3335H11.6668C12.1973 13.3335 12.706 13.1228 13.081 12.7477C13.4561 12.3726 13.6668 11.8639 13.6668 11.3335V5.33348C13.6668 4.80304 13.4561 4.29433 13.081 3.91926C12.706 3.54419 12.1973 3.33348 11.6668 3.33348ZM5.66683 2.66681C5.66683 2.49 5.73707 2.32043 5.86209 2.1954C5.98712 2.07038 6.15669 2.00014 6.3335 2.00014H7.66683C7.84364 2.00014 8.01321 2.07038 8.13823 2.1954C8.26326 2.32043 8.3335 2.49 8.3335 2.66681V3.33348H5.66683V2.66681ZM12.3335 11.3335C12.3335 11.5103 12.2633 11.6799 12.1382 11.8049C12.0132 11.9299 11.8436 12.0001 11.6668 12.0001H2.3335C2.15669 12.0001 1.98712 11.9299 1.86209 11.8049C1.73707 11.6799 1.66683 11.5103 1.66683 11.3335V7.96681H3.66683V8.66681C3.66683 8.84362 3.73707 9.01319 3.86209 9.13821C3.98712 9.26324 4.15669 9.33348 4.3335 9.33348C4.51031 9.33348 4.67988 9.26324 4.8049 9.13821C4.92992 9.01319 5.00016 8.84362 5.00016 8.66681V7.96681H9.00016V8.66681C9.00016 8.84362 9.0704 9.01319 9.19543 9.13821C9.32045 9.26324 9.49002 9.33348 9.66683 9.33348C9.84364 9.33348 10.0132 9.26324 10.1382 9.13821C10.2633 9.01319 10.3335 8.84362 10.3335 8.66681V7.96681H12.3335V11.3335ZM12.3335 6.66681H1.66683V5.33348C1.66683 5.15666 1.73707 4.9871 1.86209 4.86207C1.98712 4.73705 2.15669 4.66681 2.3335 4.66681H11.6668C11.8436 4.66681 12.0132 4.73705 12.1382 4.86207C12.2633 4.9871 12.3335 5.15666 12.3335 5.33348V6.66681Z" fill="#212529"/>
</svg>
