<svg width="20" height="21" viewBox="0 0 20 21" fill="none" xmlns="http://www.w3.org/2000/svg">
<path d="M7.50001 9.5H10C10.2652 9.5 10.5196 9.39464 10.7071 9.20711C10.8947 9.01957 11 8.76522 11 8.5C11 8.23478 10.8947 7.98043 10.7071 7.79289C10.5196 7.60536 10.2652 7.5 10 7.5H9.00001V7C9.00001 6.73478 8.89465 6.48043 8.70711 6.29289C8.51958 6.10536 8.26522 6 8.00001 6C7.73479 6 7.48044 6.10536 7.2929 6.29289C7.10537 6.48043 7.00001 6.73478 7.00001 7V7.55C6.39243 7.67337 5.85237 8.0181 5.48466 8.51726C5.11696 9.01643 4.94785 9.63441 5.01015 10.2512C5.07246 10.8681 5.36174 11.4398 5.82184 11.8553C6.28194 12.2709 6.88003 12.5006 7.50001 12.5H8.50001C8.63262 12.5 8.75979 12.5527 8.85356 12.6464C8.94733 12.7402 9.00001 12.8674 9.00001 13C9.00001 13.1326 8.94733 13.2598 8.85356 13.3536C8.75979 13.4473 8.63262 13.5 8.50001 13.5H6.00001C5.73479 13.5 5.48044 13.6054 5.2929 13.7929C5.10537 13.9804 5.00001 14.2348 5.00001 14.5C5.00001 14.7652 5.10537 15.0196 5.2929 15.2071C5.48044 15.3946 5.73479 15.5 6.00001 15.5H7.00001V16C7.00001 16.2652 7.10537 16.5196 7.2929 16.7071C7.48044 16.8946 7.73479 17 8.00001 17C8.26522 17 8.51958 16.8946 8.70711 16.7071C8.89465 16.5196 9.00001 16.2652 9.00001 16V15.45C9.60758 15.3266 10.1476 14.9819 10.5154 14.4827C10.8831 13.9836 11.0522 13.3656 10.9899 12.7488C10.9276 12.1319 10.6383 11.5602 10.1782 11.1447C9.71807 10.7291 9.11998 10.4994 8.50001 10.5H7.50001C7.3674 10.5 7.24022 10.4473 7.14645 10.3536C7.05269 10.2598 7.00001 10.1326 7.00001 10C7.00001 9.86739 7.05269 9.74021 7.14645 9.64645C7.24022 9.55268 7.3674 9.5 7.50001 9.5ZM19 11H16V2C16.0007 1.82379 15.9548 1.65052 15.867 1.49775C15.7792 1.34497 15.6526 1.2181 15.5 1.13C15.348 1.04223 15.1755 0.996025 15 0.996025C14.8245 0.996025 14.652 1.04223 14.5 1.13L11.5 2.85L8.50001 1.13C8.34799 1.04223 8.17554 0.996025 8.00001 0.996025C7.82447 0.996025 7.65203 1.04223 7.50001 1.13L4.50001 2.85L1.50001 1.13C1.34799 1.04223 1.17554 0.996025 1.00001 0.996025C0.824471 0.996025 0.652027 1.04223 0.500008 1.13C0.347404 1.2181 0.220789 1.34497 0.132986 1.49775C0.0451828 1.65052 -0.000691685 1.82379 7.88288e-06 2V18C7.88288e-06 18.7956 0.316078 19.5587 0.878688 20.1213C1.4413 20.6839 2.20436 21 3.00001 21H17C17.7957 21 18.5587 20.6839 19.1213 20.1213C19.6839 19.5587 20 18.7956 20 18V12C20 11.7348 19.8947 11.4804 19.7071 11.2929C19.5196 11.1054 19.2652 11 19 11ZM3.00001 19C2.73479 19 2.48044 18.8946 2.2929 18.7071C2.10536 18.5196 2.00001 18.2652 2.00001 18V3.73L4.00001 4.87C4.15435 4.95061 4.32589 4.99271 4.50001 4.99271C4.67413 4.99271 4.84567 4.95061 5.00001 4.87L8.00001 3.15L11 4.87C11.1543 4.95061 11.3259 4.99271 11.5 4.99271C11.6741 4.99271 11.8457 4.95061 12 4.87L14 3.73V18C14.0027 18.3411 14.0636 18.6793 14.18 19H3.00001ZM18 18C18 18.2652 17.8947 18.5196 17.7071 18.7071C17.5196 18.8946 17.2652 19 17 19C16.7348 19 16.4804 18.8946 16.2929 18.7071C16.1054 18.5196 16 18.2652 16 18V13H18V18Z" fill="#6C757D"/>
</svg>
