<svg width="12" height="14" viewBox="0 0 12 14" fill="none" xmlns="http://www.w3.org/2000/svg">
<path d="M10.0001 1.98681C8.93925 0.925944 7.50041 0.329956 6.00012 0.329956C4.49982 0.329956 3.06098 0.925944 2.00012 1.98681C0.93925 3.04768 0.343262 4.48652 0.343262 5.98681C0.343262 7.4871 0.93925 8.92594 2.00012 9.98681L5.51345 13.5068C5.57542 13.5693 5.64916 13.6189 5.7304 13.6527C5.81164 13.6866 5.89877 13.704 5.98678 13.704C6.07479 13.704 6.16193 13.6866 6.24317 13.6527C6.32441 13.6189 6.39814 13.5693 6.46011 13.5068L10.0001 9.95348C11.0565 8.89703 11.65 7.46418 11.65 5.97014C11.65 4.47611 11.0565 3.04326 10.0001 1.98681ZM9.04678 9.00014L6.00012 12.0601L2.95345 9.00014C2.35155 8.39769 1.94177 7.63031 1.77591 6.795C1.61006 5.9597 1.69557 5.09398 2.02165 4.30726C2.34773 3.52055 2.89973 2.84818 3.60787 2.37513C4.31601 1.90208 5.14851 1.6496 6.00012 1.6496C6.85173 1.6496 7.68422 1.90208 8.39236 2.37513C9.1005 2.84818 9.6525 3.52055 9.97858 4.30726C10.3047 5.09398 10.3902 5.9597 10.2243 6.795C10.0585 7.63031 9.64869 8.39769 9.04678 9.00014ZM4.00012 3.94014C3.46193 4.47999 3.15971 5.21119 3.15971 5.97348C3.15971 6.73577 3.46193 7.46696 4.00012 8.00681C4.39996 8.40734 4.90917 8.68086 5.46388 8.79308C6.01859 8.9053 6.59408 8.8512 7.11816 8.63758C7.64224 8.42396 8.09157 8.06033 8.40977 7.59231C8.72797 7.12429 8.90087 6.57272 8.90678 6.00681C8.90979 5.62895 8.837 5.25432 8.69272 4.90507C8.54844 4.55582 8.3356 4.23905 8.06678 3.97348C7.80256 3.7032 7.4875 3.48784 7.13973 3.33979C6.79196 3.19174 6.41834 3.11393 6.04038 3.11083C5.66242 3.10773 5.28758 3.17941 4.93743 3.32174C4.58728 3.46406 4.26873 3.67423 4.00012 3.94014ZM7.12678 7.06014C6.87414 7.31664 6.54026 7.47741 6.1822 7.51498C5.82414 7.55255 5.46416 7.46457 5.16379 7.2661C4.86342 7.06762 4.64131 6.77097 4.53545 6.42687C4.42959 6.08276 4.44655 5.71257 4.58342 5.37958C4.72029 5.04659 4.96858 4.77149 5.28584 4.6013C5.6031 4.43112 5.96962 4.37642 6.32274 4.44656C6.67586 4.51669 6.99366 4.70732 7.22179 4.98583C7.44992 5.26435 7.57423 5.61346 7.57345 5.97348C7.56375 6.38499 7.39111 6.77583 7.09345 7.06014H7.12678Z" fill="#212529"/>
</svg>
