<svg width="89" height="36" viewBox="0 0 89 36" fill="none" xmlns="http://www.w3.org/2000/svg">
<path fill-rule="evenodd" clip-rule="evenodd" d="M34.7618 15.75L20.2501 1.24933C19.6361 0.66851 19.0732 0.00012207 18 0.00012207C16.9268 0.00012207 16.3638 0.66851 15.7499 1.24933L1.23815 15.75C0.535733 16.4813 0 17.0145 0 18.0001C0 19.2672 0.971974 20.2502 2.2501 20.2502H4.5002V33.75C4.5002 34.9873 5.51302 36.0001 6.75033 36.0001H13.6481C13.674 33.358 13.6882 30.6641 13.6789 30.5413C13.663 30.3311 11.2849 26.6612 9.44409 23.8204C9.31318 23.6184 7.41794 20.605 7.37629 20.605C6.4041 18.9425 6.41621 18.5379 7.68624 16.7014L9.69138 13.7146C9.69787 13.7049 9.70361 13.6967 9.71052 13.6873C9.82084 13.5367 10.0267 13.2238 10.2614 12.8669C10.7223 12.166 11.3015 11.2852 11.3339 11.2766C11.3657 11.2681 14.4047 12.6368 16.1451 13.4206C16.6595 13.6522 17.0637 13.8343 17.243 13.9131C17.288 13.9329 17.3234 13.9476 17.4806 14.0156C17.7728 14.142 18.2107 14.3314 18.575 14.5C18.9067 14.6535 19.0912 14.9928 19.0397 15.3546C19.0153 15.5254 18.9854 15.7033 18.9501 15.8669C18.8959 16.1188 18.8386 16.3209 18.7907 16.3602C18.7215 16.417 17.0144 16.859 15.9644 17.1308C15.5966 17.226 15.3074 17.3009 15.191 17.3335C15.0979 17.3595 15.0221 17.384 14.9569 17.4051C14.7934 17.4579 14.7411 17.4747 14.6195 17.366C14.5632 17.3155 14.5164 17.2748 14.4673 17.232V17.231C14.3304 17.1119 14.1781 16.9791 14.0725 16.8692C14.0208 16.8153 13.9705 16.7751 13.9066 16.7364C13.9011 16.7331 13.896 16.73 13.8912 16.7271C13.8136 16.6798 13.8027 16.6732 13.6653 16.6392L13.324 16.5548L13.3865 17.0273L13.4438 17.0722C13.4464 17.3522 13.5041 17.4957 13.5457 17.5991C13.5742 17.6699 13.5778 17.6789 12.9224 18.3843C12.7369 18.5839 12.666 18.8379 12.7213 19.1047C12.7766 19.3715 12.9427 19.5763 13.1923 19.6857C13.2918 19.7293 13.3983 19.7754 13.5092 19.823C14.3164 20.1693 15.375 20.6066 15.5971 20.6937C15.7867 20.7681 15.9242 20.8305 16.0312 20.8791C16.2134 20.9618 16.3194 21.0099 16.4688 21.0242C16.6623 21.0426 16.853 20.9919 17.3088 20.8707L17.3629 20.8564C17.4268 20.8394 17.4973 20.8179 17.5614 20.7984C17.7562 20.7392 17.8672 20.7055 18.0789 20.8127C18.9073 21.232 19.885 21.595 20.8223 21.943C21.0437 22.0252 21.262 22.1063 21.584 22.2289C21.9123 22.354 22.3236 22.7301 22.6813 23.0572C22.815 23.1795 22.9419 23.2956 23.0428 23.3808L23.0456 23.3827L23.9045 24.0894C24.2077 24.3388 24.6342 24.3395 24.9382 24.091C28.2788 21.3606 28.918 21.0323 28.2583 23.6413C28.1118 24.261 27.5436 27.6137 27.2302 28.1818C26.9375 28.7121 25.1922 30.5083 24.7146 31.1305C24.5495 31.3457 24.4216 31.5502 24.4071 31.6814C24.4056 31.6956 24.4103 33.7716 24.4128 36.0001H29.2497C30.487 36.0001 31.4998 34.9873 31.4998 33.75V20.2502H33.7499C35.028 20.2502 36 19.2672 36 18.0001C36 17.0145 35.4642 16.4813 34.7618 15.75ZM13.3426 11.1791L15.643 12.2658C16.0139 12.441 16.4507 12.3172 16.6744 11.9733L17.3939 10.8674L17.3949 10.8655L17.4455 10.7896C17.6659 10.4588 17.8967 10.1127 18.1142 9.76299C18.3347 9.40843 18.254 8.94983 17.9258 8.69173C17.7165 8.52718 17.4884 8.35046 17.2923 8.1986C17.0837 8.03698 16.9105 7.90283 16.8229 7.8309C16.7483 7.76957 16.3225 7.4284 15.8928 7.09282C15.7047 6.94586 15.4865 6.89125 15.2513 6.93218C15.0161 6.97314 14.8292 7.09828 14.7018 7.30021L13.8486 8.65229C13.7716 8.77643 13.6958 8.9054 13.6191 9.03565C13.4605 9.30532 13.2985 9.58079 13.1203 9.83286C13.0941 9.86993 13.0575 9.92318 13.0146 9.98694C12.8772 10.1911 12.8396 10.4211 12.9048 10.6583C12.9701 10.8956 13.1201 11.074 13.3426 11.1791ZM28.0033 16.6328C27.6565 16.3561 27.1504 16.4084 26.8673 16.75C26.6312 17.0351 26.3554 17.3639 26.0772 17.6956C25.5038 18.3792 24.9201 19.0753 24.6658 19.4077L24.662 19.4134L23.2539 21.1541C23.2412 21.1698 23.2308 21.1837 23.2192 21.2003C23.1195 21.3432 23.0396 21.5011 22.9986 21.6684C22.9617 21.8194 22.9559 21.9811 22.9957 22.1501C23.0484 22.3739 23.0538 22.3786 23.1375 22.4515C23.1671 22.4772 23.1996 22.5064 23.2133 22.5187L23.2143 22.5206L23.7981 23.0549C24.0598 23.2943 24.4278 23.3389 24.7391 23.1689C24.968 23.0439 25.1761 22.885 25.2974 22.7859C25.3115 22.7744 25.3232 22.7642 25.3365 22.7518L28.8665 19.4724C29.7754 18.628 29.0468 17.4651 28.0033 16.6328ZM17.8502 13.3063C18.4667 13.604 19.1605 13.9226 19.3814 14.0189L19.4628 14.0538C19.74 14.1723 19.8663 14.2264 19.9161 14.4688C19.9454 14.612 19.9172 14.7831 19.8655 15.0975C19.8455 15.2188 19.8213 15.3653 19.7905 15.5759C19.7664 15.7403 19.7488 15.8807 19.7346 15.9938C19.7043 16.235 19.6883 16.3619 19.6347 16.4869C19.5721 16.633 19.486 16.7191 19.3046 16.9007C19.2589 16.9465 19.2061 16.9992 19.1438 17.0631C18.9065 17.3062 17.4444 17.6481 16.5744 17.8515C16.3351 17.9075 16.1404 17.953 16.0517 17.9763C15.9603 18.0002 15.8257 18.031 15.6648 18.0677C15.5724 18.0888 15.4708 18.112 15.3645 18.1368C15.0164 18.2179 14.7703 18.5004 14.7378 18.8564C14.7052 19.2124 14.8961 19.5349 15.2237 19.6777C15.3001 19.711 15.3759 19.7455 15.4556 19.7817C15.8971 19.9822 16.462 20.2388 16.8103 20.1974C16.9361 20.1824 17.0772 20.1421 17.2038 20.0883C17.3214 20.0384 17.4211 19.98 17.4757 19.9242C17.5895 19.808 17.9718 19.3108 18.3728 18.7741C18.8591 18.123 19.3649 17.4242 19.4521 17.2769C19.573 17.0729 19.7173 16.8321 19.8961 16.5341L19.9019 16.5244C20.0812 16.2253 20.2528 15.964 20.4209 15.7078H20.4219C20.5573 15.5017 20.6905 15.2988 20.8212 15.0865C20.976 14.8352 21.1456 14.5992 21.3155 14.3626C21.4714 14.1455 21.6278 13.9279 21.7745 13.693C21.7797 13.6847 21.7843 13.6776 21.7898 13.6694L22.205 13.0529C22.443 12.6996 22.3702 12.2258 22.0372 11.9603L19.9116 10.2654C19.9021 10.2579 19.8939 10.2516 19.8842 10.2445C19.8666 10.2316 19.8492 10.2186 19.8322 10.2056C19.646 10.0632 19.4324 10.0102 19.2012 10.0493C18.97 10.0883 18.7857 10.2084 18.6565 10.4041L18.1016 11.2452C18.0429 11.3387 17.9421 11.4913 17.8207 11.6745C17.7291 11.8128 17.6257 11.9687 17.5231 12.1252C17.3898 12.3285 17.3543 12.5555 17.4192 12.7898C17.4841 13.0242 17.6313 13.2005 17.8502 13.3063ZM26.0476 15.0668L24.0994 13.5535C24.0931 13.5486 24.0877 13.5446 24.0813 13.5399C24.0694 13.5312 24.0563 13.5213 24.0423 13.5105C23.8579 13.3689 23.6468 13.3154 23.4172 13.3521C23.1877 13.3888 23.0038 13.5054 22.8727 13.6974L19.1002 19.2232C19.042 19.3087 18.993 19.3691 18.9533 19.4187V19.4196C18.8623 19.5333 18.8531 19.5447 18.9094 20.128C18.9266 20.3065 18.98 20.3322 19.1105 20.3949L19.1683 20.4229L20.8337 21.206C20.8886 21.2318 20.9378 21.2488 20.9969 21.2625C21.2169 21.3133 21.3848 21.3216 21.5396 21.2982C21.7252 21.2702 21.9077 21.1959 22.1408 21.0946C22.2358 21.0533 23.0091 20.0987 23.4235 19.5871C23.5471 19.4345 23.6404 19.3192 23.678 19.2755C23.729 19.2161 23.8235 19.1079 23.9376 18.9774C24.5091 18.3233 25.609 17.0645 26.2204 16.1707C26.464 15.8144 26.3885 15.3316 26.0476 15.0668Z" fill="#F2404D"/>
<path d="M38.5714 18.5379V9.4247H43.3128C44.0582 9.4247 44.6668 9.56149 45.1386 9.83507C45.6198 10.1087 45.9784 10.4907 46.2143 10.9813C46.4502 11.4624 46.5681 12.0237 46.5681 12.6653C46.5681 13.2785 46.4124 13.8209 46.1011 14.2926C45.7991 14.7549 45.3934 15.1086 44.8839 15.3539C44.9877 15.4388 45.0773 15.5426 45.1528 15.6653C45.2283 15.7785 45.3132 15.9388 45.4075 16.1464L46.4549 18.5379H43.6808L42.7184 16.3445C42.6429 16.1747 42.5485 16.0568 42.4353 15.9907C42.3315 15.9153 42.1805 15.8775 41.9824 15.8775H41.2323V18.5379H38.5714ZM41.2323 13.8398H42.6335C43.0203 13.8398 43.3175 13.7407 43.5251 13.5426C43.7421 13.3351 43.8507 13.0426 43.8507 12.6653C43.8507 11.8634 43.4732 11.4624 42.7184 11.4624H41.2323V13.8398Z" fill="#212529"/>
<path d="M50.0607 18.6794C49.2775 18.6794 48.6642 18.4577 48.2208 18.0143C47.7773 17.5709 47.5555 16.92 47.5555 16.0615V11.8304H50.2164V15.8492C50.2164 16.4341 50.5136 16.7266 51.1081 16.7266C51.3251 16.7266 51.5374 16.6794 51.745 16.5851C51.9525 16.4907 52.1177 16.3728 52.2403 16.2313V11.8304H54.9012V18.5379H52.4102L52.3394 18.0285C52.0752 18.2171 51.7497 18.3728 51.3628 18.4954C50.9854 18.6181 50.5514 18.6794 50.0607 18.6794Z" fill="#212529"/>
<path d="M56.2389 18.5379V11.8304H58.7016L58.7724 12.3681C59.0649 12.17 59.3904 12.0096 59.749 11.887C60.117 11.7549 60.518 11.6888 60.952 11.6888C61.386 11.6888 61.7257 11.7502 61.9711 11.8728C62.2164 11.9954 62.4145 12.1747 62.5655 12.4105C62.8674 12.1936 63.2071 12.019 63.5845 11.887C63.9714 11.7549 64.4243 11.6888 64.9433 11.6888C65.7264 11.6888 66.302 11.8964 66.67 12.3115C67.038 12.7171 67.222 13.3398 67.222 14.1794V18.5379H64.6036V14.4907C64.6036 14.1888 64.5423 13.9766 64.4196 13.8539C64.2969 13.7219 64.0941 13.6558 63.811 13.6558C63.443 13.6558 63.1411 13.7879 62.9052 14.052C62.9241 14.1747 62.9335 14.2926 62.9335 14.4058C62.9335 14.5096 62.9335 14.6275 62.9335 14.7596V18.5379H60.4708V14.4483C60.4708 14.1747 60.4236 13.9766 60.3293 13.8539C60.2349 13.7219 60.0556 13.6558 59.7914 13.6558C59.6121 13.6558 59.4376 13.703 59.2677 13.7973C59.0979 13.8917 58.9469 14.0049 58.8148 14.137V18.5379H56.2389Z" fill="#212529"/>
<path d="M70.3878 18.6794C69.9632 18.6794 69.5669 18.6039 69.1989 18.453C68.8404 18.302 68.5526 18.0662 68.3356 17.7454C68.1186 17.4247 68.01 17.019 68.01 16.5285C68.01 15.8209 68.2459 15.2737 68.7177 14.887C69.1895 14.4907 69.9019 14.2926 70.8549 14.2926H72.5958V14.1653C72.5958 13.9011 72.4872 13.7077 72.2702 13.5851C72.0532 13.4624 71.6711 13.4011 71.1238 13.4011C70.3501 13.4011 69.5858 13.519 68.8309 13.7549V12.1558C69.1706 12.0237 69.5952 11.9153 70.1048 11.8304C70.6143 11.736 71.1332 11.6888 71.6616 11.6888C72.7279 11.6888 73.5723 11.9058 74.1951 12.3398C74.8178 12.7737 75.1292 13.4624 75.1292 14.4058V18.5379H72.8081L72.6807 18.0002C72.4448 18.2077 72.1381 18.3728 71.7607 18.4954C71.3927 18.6181 70.9351 18.6794 70.3878 18.6794ZM71.2936 17.1228C71.5956 17.1228 71.8503 17.0709 72.0579 16.9671C72.2749 16.8634 72.4542 16.736 72.5958 16.5851V15.7502H71.3078C70.7228 15.7502 70.4303 15.9813 70.4303 16.4436C70.4303 16.8964 70.7181 17.1228 71.2936 17.1228Z" fill="#212529"/>
<path d="M76.4081 18.5379V9.00017H79.069V12.2407C79.3049 12.0804 79.5974 11.9483 79.9465 11.8445C80.305 11.7407 80.6872 11.6888 81.0929 11.6888C82.0176 11.6888 82.6923 11.9058 83.1169 12.3398C83.5415 12.7643 83.7538 13.4247 83.7538 14.3209V18.5379H81.0788V14.519C81.0788 14.2077 81.0127 13.986 80.8806 13.8539C80.7579 13.7219 80.5315 13.6558 80.2012 13.6558C80.0031 13.6558 79.7955 13.703 79.5785 13.7973C79.3709 13.8917 79.2011 14.0049 79.069 14.137V18.5379H76.4081Z" fill="#212529"/>
<path d="M38.5714 32.6888V23.5756H43.2704C44.0158 23.5756 44.6291 23.7266 45.1103 24.0284C45.601 24.3209 45.9642 24.7218 46.2001 25.2313C46.436 25.7407 46.554 26.3067 46.554 26.9294C46.554 27.5709 46.4171 28.1416 46.1435 28.6416C45.8699 29.1416 45.483 29.5332 44.9829 29.8162C44.4828 30.0992 43.8931 30.2407 43.2138 30.2407H41.2323V32.6888H38.5714ZM41.2323 28.203H42.6052C43.0203 28.203 43.327 28.085 43.5251 27.8492C43.7327 27.6133 43.8365 27.3067 43.8365 26.9294C43.8365 26.5237 43.7421 26.203 43.5534 25.9671C43.3647 25.7313 43.0722 25.6133 42.6759 25.6133H41.2323V28.203Z" fill="#212529"/>
<path d="M51.0301 32.8303C50.2469 32.8303 49.5534 32.703 48.9495 32.4482C48.3551 32.1841 47.888 31.7926 47.5484 31.2737C47.2181 30.7548 47.053 30.1133 47.053 29.3492C47.053 28.2832 47.3549 27.4341 47.9588 26.802C48.5627 26.1605 49.4638 25.8398 50.6621 25.8398C51.7566 25.8398 52.6106 26.1181 53.2239 26.6747C53.8466 27.2313 54.158 27.9907 54.158 28.953V30.1275H49.5015C49.6242 30.486 49.8648 30.7407 50.2234 30.8916C50.5819 31.0426 51.0678 31.1181 51.6812 31.1181C52.068 31.1181 52.4549 31.085 52.8417 31.019C53.238 30.9435 53.5541 30.8586 53.79 30.7643V32.3633C53.1295 32.6747 52.2096 32.8303 51.0301 32.8303ZM49.5015 28.6841H51.8652V28.4435C51.8652 28.1794 51.7802 27.9624 51.6104 27.7926C51.45 27.6228 51.1622 27.5379 50.747 27.5379C50.2847 27.5379 49.9592 27.6369 49.7705 27.835C49.5912 28.0237 49.5015 28.3067 49.5015 28.6841Z" fill="#212529"/>
<path d="M55.2161 32.6888V23.1511H57.8769V27.8633L59.7452 25.9813H62.7599L60.0849 28.8115L62.9156 32.6888H60.0849L58.4289 30.1982L57.8769 30.7501V32.6888H55.2161Z" fill="#212529"/>
<path d="M66.6796 32.8303C65.8965 32.8303 65.2029 32.703 64.5991 32.4482C64.0046 32.1841 63.5376 31.7926 63.1979 31.2737C62.8676 30.7548 62.7025 30.1133 62.7025 29.3492C62.7025 28.2832 63.0044 27.4341 63.6083 26.802C64.2122 26.1605 65.1133 25.8398 66.3116 25.8398C67.4062 25.8398 68.2601 26.1181 68.8734 26.6747C69.4961 27.2313 69.8075 27.9907 69.8075 28.953V30.1275H65.151C65.2737 30.486 65.5143 30.7407 65.8729 30.8916C66.2314 31.0426 66.7174 31.1181 67.3307 31.1181C67.7175 31.1181 68.1044 31.085 68.4913 31.019C68.8876 30.9435 69.2036 30.8586 69.4395 30.7643V32.3633C68.779 32.6747 67.8591 32.8303 66.6796 32.8303ZM65.151 28.6841H67.5147V28.4435C67.5147 28.1794 67.4297 27.9624 67.2599 27.7926C67.0995 27.6228 66.8117 27.5379 66.3965 27.5379C65.9342 27.5379 65.6087 27.6369 65.42 27.835C65.2407 28.0237 65.151 28.3067 65.151 28.6841Z" fill="#212529"/>
<path d="M70.8656 32.6888V25.9813H73.4274L73.4981 26.519C73.7718 26.3586 74.1209 26.2124 74.5455 26.0803C74.9701 25.9483 75.3994 25.8681 75.8335 25.8398V27.8209C75.5881 27.8398 75.3192 27.8728 75.0267 27.9199C74.7437 27.9671 74.4653 28.0284 74.1917 28.1039C73.9275 28.1699 73.7057 28.2454 73.5265 28.3303V32.6888H70.8656Z" fill="#212529"/>
<path d="M77.0243 25.0898V23.1652H79.8975V25.0898H77.0243ZM77.3074 36.0001C76.5997 36.0001 75.9959 35.8964 75.4958 35.6888V33.9199C75.7788 34.0143 76.0619 34.0614 76.345 34.0614C76.9394 34.0614 77.2366 33.8209 77.2366 33.3397V27.9199H76.2601L76.4865 25.9813H79.8975V33.5379C79.8975 34.2548 79.6899 34.8445 79.2747 35.3067C78.8596 35.769 78.2038 36.0001 77.3074 36.0001Z" fill="#212529"/>
<path d="M83.3299 32.8303C82.9053 32.8303 82.509 32.7548 82.141 32.6039C81.7825 32.453 81.4947 32.2171 81.2777 31.8964C81.0607 31.5756 80.9521 31.1699 80.9521 30.6794C80.9521 29.9718 81.188 29.4247 81.6598 29.0379C82.1316 28.6416 82.844 28.4435 83.797 28.4435H85.5379V28.3162C85.5379 28.052 85.4294 27.8586 85.2123 27.736C84.9953 27.6133 84.6132 27.552 84.0659 27.552C83.2922 27.552 82.5279 27.6699 81.773 27.9058V26.3067C82.1127 26.1747 82.5373 26.0662 83.0469 25.9813C83.5564 25.8869 84.0753 25.8398 84.6037 25.8398C85.67 25.8398 86.5145 26.0567 87.1372 26.4907C87.76 26.9247 88.0713 27.6133 88.0713 28.5567V32.6888H85.7502L85.6228 32.1511C85.3869 32.3586 85.0802 32.5237 84.7028 32.6464C84.3348 32.769 83.8772 32.8303 83.3299 32.8303ZM84.2357 31.2737C84.5377 31.2737 84.7925 31.2218 85 31.1181C85.2171 31.0143 85.3963 30.8869 85.5379 30.736V29.9011H84.2499C83.6649 29.9011 83.3724 30.1322 83.3724 30.5945C83.3724 31.0473 83.6602 31.2737 84.2357 31.2737Z" fill="#212529"/>
</svg>
