<svg width="12" height="14" viewBox="0 0 12 14" fill="none" xmlns="http://www.w3.org/2000/svg">
<path d="M6.79984 9.00015C6.6665 9.06682 6.53317 9.06682 6.39984 9.13348C6.33317 9.00015 6.2665 8.86682 6.19984 8.80015C5.6665 8.33348 4.8665 8.26682 4.19984 8.66682C3.6665 9.00015 3.33317 9.66682 3.33317 10.3335C3.33317 10.6668 3.6665 11.0001 3.99984 10.9335C4.33317 10.9335 4.6665 10.6001 4.6665 10.2668C4.6665 10.0668 4.73317 9.93348 4.8665 9.80015C4.93317 9.80015 4.99984 9.73348 5.0665 9.73348C4.8665 10.1335 4.99984 10.6001 5.39984 10.8668C5.53317 10.9335 5.59984 10.9335 5.73317 10.9335C5.99984 10.9335 6.2665 10.8001 6.4665 10.6001C6.53317 10.5335 6.6665 10.4668 6.79984 10.4001C6.8665 10.6668 7.13317 10.9335 7.4665 10.9335H7.99984C8.39984 10.9335 8.6665 10.6668 8.6665 10.2668C8.6665 9.93348 8.39984 9.66682 8.0665 9.60015C7.99984 9.46681 7.99984 9.40015 7.8665 9.26682C7.6665 9.06682 7.19984 8.93348 6.79984 9.00015ZM11.3332 4.93348C11.3332 4.86682 11.3332 4.80015 11.2665 4.73348V4.66682C11.2665 4.60015 11.1998 4.53348 11.1332 4.46681L7.13317 0.466815C7.0665 0.400149 6.99984 0.400149 6.93317 0.333482H6.8665C6.79984 0.333482 6.73317 0.333482 6.6665 0.266815C6.6665 0.266815 6.6665 0.266815 6.59984 0.266815H2.6665C1.53317 0.333482 0.666504 1.20015 0.666504 2.33348V11.6668C0.666504 12.8001 1.53317 13.6668 2.6665 13.6668H9.33317C10.4665 13.6668 11.3332 12.8001 11.3332 11.6668V4.93348C11.3332 5.00015 11.3332 5.00015 11.3332 4.93348ZM7.33317 2.60015L9.0665 4.33348H7.99984C7.59984 4.33348 7.33317 4.06682 7.33317 3.66682V2.60015ZM9.99984 11.6668C9.99984 12.0668 9.73317 12.3335 9.33317 12.3335H2.6665C2.2665 12.3335 1.99984 12.0668 1.99984 11.6668V2.33348C1.99984 1.93348 2.2665 1.66682 2.6665 1.66682H5.99984V3.66682C5.99984 4.80015 6.8665 5.66682 7.99984 5.66682H9.99984V11.6668ZM3.99984 5.66682H4.6665C5.0665 5.66682 5.33317 5.40015 5.33317 5.00015C5.33317 4.60015 5.0665 4.33348 4.6665 4.33348H3.99984C3.59984 4.33348 3.33317 4.60015 3.33317 5.00015C3.33317 5.40015 3.59984 5.66682 3.99984 5.66682Z" fill="#212529"/>
</svg>
