<svg width="137" height="24" viewBox="0 0 137 24" fill="none" xmlns="http://www.w3.org/2000/svg">
<path d="M21.6332 8.63991C21.7859 8.75883 21.9007 8.9195 21.9639 9.10241C22.0125 9.28528 22.0083 9.4782 21.9516 9.65876C21.895 9.83931 21.7883 10.0001 21.6439 10.1224L17.5139 14.1224L18.5139 19.8024C18.5496 19.9899 18.5309 20.1837 18.46 20.3609C18.3891 20.5381 18.269 20.6913 18.1139 20.8024C17.9423 20.9266 17.7357 20.9932 17.5239 20.9924C17.3628 20.9929 17.2042 20.9516 17.0639 20.8724L11.9639 18.2024L6.86389 20.8724C6.69615 20.9673 6.50458 21.0116 6.31222 21.0002C6.11987 20.9887 5.93492 20.9219 5.77962 20.8078C5.62433 20.6937 5.50531 20.5372 5.43688 20.357C5.36845 20.1769 5.35352 19.9808 5.39389 19.7924L6.39389 14.1124L2.26389 10.1124C2.13535 9.98413 2.04417 9.82328 2.00012 9.6471C1.95608 9.47093 1.96084 9.28608 2.01389 9.11241C2.07185 8.93468 2.17847 8.77676 2.32164 8.65657C2.46482 8.53637 2.63882 8.45871 2.82389 8.43241L8.51389 7.59241L11.0639 2.43241C11.1458 2.26334 11.2736 2.12075 11.4328 2.02098C11.592 1.92121 11.776 1.8683 11.9639 1.8683C12.1518 1.8683 12.3358 1.92121 12.495 2.02098C12.6542 2.12075 12.782 2.26334 12.8639 2.43241L15.4139 7.60241L21.1039 8.43241C21.2967 8.4489 21.4806 8.52098 21.6332 8.63991Z" fill="#FFC107"/>
<path d="M49.6332 8.63991C49.7859 8.75883 49.9007 8.9195 49.9639 9.10241C50.0125 9.28528 50.0083 9.4782 49.9516 9.65876C49.895 9.83931 49.7883 10.0001 49.6439 10.1224L45.5139 14.1224L46.5139 19.8024C46.5496 19.9899 46.5309 20.1837 46.46 20.3609C46.3891 20.5381 46.269 20.6913 46.1139 20.8024C45.9423 20.9266 45.7357 20.9932 45.5239 20.9924C45.3628 20.9929 45.2042 20.9516 45.0639 20.8724L39.9639 18.2024L34.8639 20.8724C34.6962 20.9673 34.5046 21.0116 34.3122 21.0002C34.1199 20.9887 33.9349 20.9219 33.7796 20.8078C33.6243 20.6937 33.5053 20.5372 33.4369 20.357C33.3684 20.1769 33.3535 19.9808 33.3939 19.7924L34.3939 14.1124L30.2639 10.1124C30.1354 9.98413 30.0442 9.82328 30.0001 9.6471C29.9561 9.47093 29.9608 9.28608 30.0139 9.11241C30.0719 8.93468 30.1785 8.77676 30.3216 8.65657C30.4648 8.53637 30.6388 8.45871 30.8239 8.43241L36.5139 7.59241L39.0639 2.43241C39.1458 2.26334 39.2736 2.12075 39.4328 2.02098C39.592 1.92121 39.776 1.8683 39.9639 1.8683C40.1518 1.8683 40.3358 1.92121 40.495 2.02098C40.6542 2.12075 40.782 2.26334 40.8639 2.43241L43.4139 7.60241L49.1039 8.43241C49.2967 8.4489 49.4806 8.52098 49.6332 8.63991Z" fill="#FFC107"/>
<path d="M77.6332 8.63991C77.7859 8.75883 77.9007 8.9195 77.9639 9.10241C78.0125 9.28528 78.0083 9.4782 77.9516 9.65876C77.895 9.83931 77.7883 10.0001 77.6439 10.1224L73.5139 14.1224L74.5139 19.8024C74.5496 19.9899 74.5309 20.1837 74.46 20.3609C74.3891 20.5381 74.269 20.6913 74.1139 20.8024C73.9423 20.9266 73.7357 20.9932 73.5239 20.9924C73.3628 20.9929 73.2042 20.9516 73.0639 20.8724L67.9639 18.2024L62.8639 20.8724C62.6962 20.9673 62.5046 21.0116 62.3122 21.0002C62.1199 20.9887 61.9349 20.9219 61.7796 20.8078C61.6243 20.6937 61.5053 20.5372 61.4369 20.357C61.3684 20.1769 61.3535 19.9808 61.3939 19.7924L62.3939 14.1124L58.2639 10.1124C58.1354 9.98413 58.0442 9.82328 58.0001 9.6471C57.9561 9.47093 57.9608 9.28608 58.0139 9.11241C58.0719 8.93468 58.1785 8.77676 58.3216 8.65657C58.4648 8.53637 58.6388 8.45871 58.8239 8.43241L64.5139 7.59241L67.0639 2.43241C67.1458 2.26334 67.2736 2.12075 67.4328 2.02098C67.592 1.92121 67.776 1.8683 67.9639 1.8683C68.1518 1.8683 68.3358 1.92121 68.495 2.02098C68.6542 2.12075 68.782 2.26334 68.8639 2.43241L71.4139 7.60241L77.1039 8.43241C77.2967 8.4489 77.4806 8.52098 77.6332 8.63991Z" fill="#FFC107"/>
<path d="M106.5 9.67015C106.437 9.48723 106.322 9.32657 106.169 9.20765C106.017 9.08872 105.833 9.01664 105.64 9.00014L99.95 8.17015L97.4 3.00015C97.3181 2.83107 97.1902 2.68849 97.0311 2.58872C96.8719 2.48895 96.6878 2.43604 96.5 2.43604C96.3121 2.43604 96.1281 2.48895 95.9689 2.58872C95.8097 2.68849 95.6819 2.83107 95.6 3.00015L93.05 8.16014L87.36 9.00014C87.1749 9.02645 87.0009 9.10411 86.8577 9.2243C86.7146 9.3445 86.6079 9.50242 86.55 9.68015C86.4969 9.85382 86.4922 10.0387 86.5362 10.2148C86.5802 10.391 86.6714 10.5519 86.8 10.6801L90.93 14.6801L89.93 20.3601C89.8896 20.5486 89.9045 20.7446 89.973 20.9248C90.0414 21.1049 90.1604 21.2614 90.3157 21.3755C90.471 21.4896 90.6559 21.5564 90.8483 21.5679C91.0407 21.5794 91.2322 21.535 91.4 21.4401L96.5 18.7701L101.6 21.4401C101.74 21.5193 101.899 21.5607 102.06 21.5601C102.272 21.5609 102.478 21.4944 102.65 21.3701C102.805 21.259 102.925 21.1058 102.996 20.9286C103.067 20.7514 103.086 20.5576 103.05 20.3701L102.05 14.6901L106.18 10.6901C106.324 10.5678 106.431 10.407 106.488 10.2265C106.544 10.0459 106.549 9.85302 106.5 9.67015ZM100.3 13.6201C100.184 13.7326 100.097 13.8713 100.047 14.0245C99.9964 14.1778 99.9837 14.3409 100.01 14.5001L100.73 18.7001L97.5 17.0001V7.73015L98.38 9.52015C98.452 9.66698 98.559 9.79391 98.6915 9.8898C98.824 9.98569 98.978 10.0476 99.14 10.0701L103.35 10.6801L100.3 13.6201Z" fill="#FFC107"/>
<path d="M134.5 9.67015C134.437 9.48723 134.322 9.32657 134.169 9.20765C134.017 9.08872 133.833 9.01664 133.64 9.00014L127.95 8.17015L125.4 3.00015C125.318 2.83107 125.19 2.68849 125.031 2.58872C124.872 2.48895 124.688 2.43604 124.5 2.43604C124.312 2.43604 124.128 2.48895 123.969 2.58872C123.81 2.68849 123.682 2.83107 123.6 3.00015L121.05 8.16014L115.36 9.00014C115.175 9.02645 115.001 9.10411 114.858 9.2243C114.715 9.3445 114.608 9.50242 114.55 9.68015C114.497 9.85382 114.492 10.0387 114.536 10.2148C114.58 10.391 114.671 10.5519 114.8 10.6801L118.93 14.6801L117.93 20.3601C117.89 20.5486 117.905 20.7446 117.973 20.9248C118.041 21.1049 118.16 21.2614 118.316 21.3755C118.471 21.4896 118.656 21.5564 118.848 21.5679C119.041 21.5794 119.232 21.535 119.4 21.4401L124.5 18.7701L129.6 21.4401C129.74 21.5193 129.899 21.5607 130.06 21.5601C130.272 21.5609 130.478 21.4944 130.65 21.3701C130.805 21.259 130.925 21.1058 130.996 20.9286C131.067 20.7514 131.086 20.5576 131.05 20.3701L130.05 14.6901L134.18 10.6901C134.324 10.5678 134.431 10.407 134.488 10.2265C134.544 10.0459 134.549 9.85302 134.5 9.67015ZM128.35 13.6701C128.234 13.7826 128.147 13.9213 128.097 14.0745C128.046 14.2278 128.034 14.3909 128.06 14.5501L128.78 18.7501L125.02 16.7501C124.874 16.6779 124.713 16.6403 124.55 16.6403C124.387 16.6403 124.226 16.6779 124.08 16.7501L120.32 18.7501L121.04 14.5501C121.066 14.3909 121.054 14.2278 121.003 14.0745C120.953 13.9213 120.866 13.7826 120.75 13.6701L117.75 10.6701L121.96 10.0601C122.122 10.0376 122.276 9.97569 122.408 9.8798C122.541 9.78391 122.648 9.65698 122.72 9.51015L124.5 5.70015L126.38 9.52015C126.452 9.66698 126.559 9.79391 126.691 9.8898C126.824 9.98569 126.978 10.0476 127.14 10.0701L131.35 10.6801L128.35 13.6701Z" fill="#FFC107"/>
</svg>
