<svg width="117" height="116" viewBox="0 0 117 116" fill="none" xmlns="http://www.w3.org/2000/svg">
<rect x="0.5" width="116" height="116" rx="8" fill="#F0F1F2"/>
<path fill-rule="evenodd" clip-rule="evenodd" d="M103.198 51.9998L64.5003 13.3312C62.8631 11.7824 61.3618 10 58.5001 10C55.6383 10 54.137 11.7824 52.4998 13.3312L13.8017 51.9998C11.9286 53.95 10.5 55.3718 10.5 58C10.5 61.3789 13.0919 64.0003 16.5003 64.0003H22.5006V99.9998C22.5006 103.299 25.2014 106 28.5009 106H46.8951C46.9641 98.9546 47.002 91.7708 46.9772 91.4431C46.9348 90.8826 40.593 81.0962 35.6843 73.521C35.3352 72.9823 30.2812 64.9465 30.1701 64.9465C27.5776 60.513 27.6099 59.434 30.9967 54.5369L36.3437 46.5721C36.361 46.5462 36.3763 46.5244 36.3948 46.4992C36.689 46.0975 37.2379 45.2631 37.8637 44.3115C39.0928 42.4424 40.6374 40.0937 40.7237 40.0707C40.8086 40.0481 48.9127 43.6978 53.5537 45.788C54.9253 46.4056 56.0032 46.8911 56.4813 47.1014C56.6013 47.1542 56.6959 47.1933 57.1151 47.3746C57.8942 47.7117 59.062 48.2169 60.0335 48.6664C60.918 49.0757 61.41 49.9805 61.2725 50.9454C61.2077 51.4009 61.1278 51.8751 61.0338 52.3114C60.8891 52.9832 60.7364 53.5221 60.6086 53.627C60.4241 53.7783 55.8717 54.957 53.0718 55.6818C52.0911 55.9357 51.3197 56.1355 51.0095 56.2223C50.7612 56.2918 50.5589 56.3572 50.385 56.4133C49.9492 56.5541 49.8098 56.599 49.4855 56.309C49.3351 56.1745 49.2104 56.0658 49.0794 55.9517V55.9491C48.7145 55.6314 48.3083 55.2773 48.0268 54.9844C47.8888 54.8406 47.7548 54.7334 47.5842 54.6302C47.5696 54.6214 47.5559 54.613 47.5433 54.6053C47.3363 54.4792 47.3074 54.4616 46.9409 54.371L46.0309 54.1459L46.1973 55.406L46.3503 55.5257C46.357 56.2722 46.511 56.6548 46.622 56.9307C46.698 57.1195 46.7076 57.1436 44.9597 59.0245C44.4651 59.5567 44.2761 60.2341 44.4236 60.9455C44.5711 61.657 45.014 62.2033 45.6794 62.4949C45.9448 62.6112 46.2289 62.7342 46.5246 62.8611C48.6771 63.7846 51.5001 64.9507 52.0923 65.183C52.598 65.3813 52.9646 65.5478 53.2499 65.6773C53.7358 65.8979 54.0185 66.0263 54.4168 66.0642C54.9329 66.1134 55.4415 65.9782 56.6568 65.6551L56.801 65.6167C56.9714 65.5715 57.1595 65.5142 57.3305 65.4622C57.8499 65.3043 58.1459 65.2144 58.7106 65.5002C60.9196 66.6183 63.5266 67.5864 66.0264 68.5145C66.6167 68.7337 67.1987 68.9499 68.0574 69.2769C68.9328 69.6104 70.0296 70.6134 70.9836 71.4857C71.34 71.8117 71.6786 72.1214 71.9476 72.3487L71.9551 72.3537L74.2455 74.2381C75.0539 74.9032 76.1913 74.905 77.0019 74.2425C85.9103 66.9614 87.6148 66.086 85.8556 73.0432C85.465 74.6959 83.9498 83.6363 83.1139 85.1514C82.3336 86.5654 77.6794 91.3553 76.4057 93.0146C75.9654 93.5882 75.6245 94.1337 75.5858 94.4837C75.5816 94.5215 75.5941 100.057 75.6008 106H88.4992C91.7987 106 94.4995 103.299 94.4995 99.9998V64.0003H100.5C103.908 64.0003 106.5 61.3789 106.5 58C106.5 55.3718 105.071 53.95 103.198 51.9998ZM46.0803 39.8106L52.2148 42.7086C53.2039 43.1759 54.3685 42.8455 54.9651 41.9286L56.8839 38.9795L56.8864 38.9744L57.0214 38.7719C57.6092 37.89 58.2245 36.9669 58.8046 36.0344C59.3926 35.0889 59.1776 33.8659 58.3023 33.1777C57.7441 32.7388 57.1358 32.2676 56.6129 31.8626C56.0565 31.4316 55.5947 31.0739 55.3612 30.8821C55.1622 30.7185 54.0268 29.8088 52.881 28.9139C52.3792 28.522 51.7975 28.3764 51.1702 28.4855C50.5429 28.5948 50.0447 28.9285 49.7049 29.4669L47.4295 33.0725C47.2244 33.4035 47.0222 33.7474 46.8178 34.0948C46.3948 34.8139 45.9626 35.5485 45.4875 36.2207C45.4176 36.3195 45.32 36.4615 45.2056 36.6316C44.8392 37.1759 44.739 37.7892 44.913 38.4219C45.0871 39.0545 45.487 39.5303 46.0803 39.8106ZM85.1756 54.3538C84.2508 53.6161 82.9011 53.7554 82.1464 54.6664C81.5165 55.4268 80.7811 56.3036 80.0393 57.1881C78.5104 59.0111 76.9536 60.8672 76.2755 61.7537L76.2656 61.7687L72.5106 66.4107C72.4766 66.4527 72.4488 66.4896 72.4179 66.534C72.152 66.915 71.9391 67.336 71.8298 67.7822C71.7313 68.1849 71.7158 68.6159 71.8219 69.0668C71.9624 69.6634 71.977 69.6762 72.2002 69.8705C72.2791 69.9391 72.3658 70.0167 72.4024 70.0496L72.4048 70.0546L73.9618 71.4794C74.6595 72.1179 75.641 72.2369 76.4711 71.7834C77.0814 71.4501 77.6363 71.0265 77.9598 70.7622C77.9974 70.7316 78.0286 70.7043 78.0641 70.6712L87.4774 61.9262C89.9013 59.6744 87.9582 56.5734 85.1756 54.3538ZM58.1007 45.4831C59.7446 46.2769 61.5947 47.1268 62.1838 47.3835L62.401 47.4766C63.14 47.7926 63.477 47.9368 63.6096 48.5831C63.6879 48.9651 63.6127 49.4214 63.4747 50.2597C63.4214 50.5831 63.357 50.9739 63.2748 51.5355C63.2106 51.9739 63.1635 52.3482 63.1256 52.6498C63.0449 53.293 63.0023 53.6314 62.8593 53.9649C62.6923 54.3544 62.4628 54.584 61.9789 55.0684C61.8571 55.1903 61.7163 55.331 61.5502 55.5013C60.9174 56.1495 57.0185 57.0613 54.6984 57.6039C54.0602 57.753 53.5412 57.8745 53.3047 57.9364C53.061 58.0004 52.7019 58.0824 52.2729 58.1803C52.0265 58.2365 51.7554 58.2984 51.4722 58.3644C50.5438 58.5807 49.8876 59.3341 49.8008 60.2835C49.714 61.2328 50.2229 62.0927 51.0967 62.4737C51.3003 62.5624 51.5024 62.6544 51.715 62.7509C52.8923 63.2857 54.3988 63.97 55.3275 63.8595C55.6629 63.8196 56.0394 63.7121 56.3769 63.5687C56.6904 63.4354 56.9563 63.2799 57.1021 63.131C57.4054 62.8212 58.4249 61.4952 59.4941 60.0639C60.7911 58.3278 62.1397 56.4642 62.3724 56.0715C62.6947 55.5275 63.0797 54.8855 63.5563 54.0907L63.5718 54.0648C64.05 53.2671 64.5075 52.5704 64.956 51.8873H64.9585C65.3195 51.3376 65.6747 50.7964 66.0234 50.2303C66.436 49.5604 66.8883 48.9309 67.3415 48.3001C67.7573 47.7212 68.1742 47.1409 68.5654 46.5145C68.5793 46.4922 68.5915 46.4734 68.6063 46.4515L69.7135 44.8076C70.3481 43.8654 70.154 42.602 69.2659 41.8938L63.5977 37.3742C63.5724 37.3541 63.5506 37.3375 63.5246 37.3184C63.4776 37.2841 63.4314 37.2494 63.3859 37.2147C62.8894 36.8348 62.3198 36.6937 61.7033 36.7977C61.0868 36.9018 60.5952 37.2222 60.2508 37.744L58.7711 39.987C58.6144 40.2363 58.3456 40.6433 58.0221 41.1317C57.7777 41.5005 57.502 41.9164 57.2284 42.3336C56.8728 42.8758 56.7781 43.4811 56.9512 44.106C57.1243 44.7308 57.5169 45.2012 58.1007 45.4831ZM79.9603 50.1779L74.7651 46.1424C74.7485 46.1294 74.734 46.1186 74.717 46.1061C74.6853 46.0829 74.6504 46.0565 74.6128 46.0277C74.1212 45.6502 73.5581 45.5076 72.9461 45.6054C72.334 45.7033 71.8435 46.0142 71.494 46.5262L61.434 61.2616C61.2789 61.4896 61.148 61.6507 61.0422 61.7829V61.7854C60.7995 62.0885 60.7751 62.1189 60.9252 63.6745C60.9711 64.1504 61.1134 64.2188 61.4614 64.3862L61.6156 64.4608L66.0565 66.5491C66.203 66.6179 66.3342 66.6633 66.4919 66.6998C67.0784 66.8353 67.5261 66.8573 67.939 66.795C68.434 66.7204 68.9207 66.5222 69.5423 66.252C69.7955 66.1419 71.8577 63.5962 72.9627 62.232C73.2923 61.8251 73.5413 61.5177 73.6415 61.401C73.7774 61.2428 74.0295 60.9543 74.3337 60.6062C75.8577 58.8619 78.7907 55.5052 80.4211 53.1215C81.0709 52.1714 80.8693 50.884 79.9603 50.1779Z" fill="#212529" fill-opacity="0.2"/>
</svg>
