<svg width="20" height="20" viewBox="0 0 20 20" fill="none" xmlns="http://www.w3.org/2000/svg">
<path d="M0.700001 11.92C0.980989 12.2574 1.3326 12.5289 1.73001 12.7155C2.12743 12.9021 2.56096 12.9993 3 13H7.56L7 14.43C6.76707 15.0561 6.6895 15.7294 6.77394 16.3921C6.85838 17.0548 7.10231 17.6871 7.48481 18.2348C7.86732 18.7825 8.37697 19.2292 8.97006 19.5367C9.56315 19.8441 10.222 20.0031 10.89 20C11.0824 19.9996 11.2705 19.9437 11.4319 19.8391C11.5933 19.7344 11.7211 19.5855 11.8 19.41L14.65 13H17C17.7956 13 18.5587 12.6839 19.1213 12.1213C19.6839 11.5587 20 10.7957 20 10L20 3C20 2.20435 19.6839 1.44129 19.1213 0.878681C18.5587 0.316072 17.7956 1.90735e-06 17 1.90735e-06L4.27 1.90735e-06C3.56819 0.000236511 2.88867 0.246511 2.34968 0.695978C1.81068 1.14544 1.44633 1.76966 1.32 2.46L0.0499992 9.46C-0.0285511 9.89262 -0.0110435 10.3372 0.10128 10.7623C0.213604 11.1874 0.418001 11.5826 0.700001 11.92ZM15 2H17C17.2652 2 17.5196 2.10536 17.7071 2.29289C17.8946 2.48043 18 2.73479 18 3L18 10C18 10.2652 17.8946 10.5196 17.7071 10.7071C17.5196 10.8946 17.2652 11 17 11H15L15 2ZM2 9.82L3.27 2.82C3.3126 2.58704 3.43649 2.37676 3.61961 2.2266C3.80274 2.07644 4.03321 1.99614 4.27 2L13 2L13 11.79L10.28 17.91C10 17.8284 9.73999 17.6896 9.51634 17.5024C9.29269 17.3152 9.11028 17.0837 8.9806 16.8225C8.85093 16.5613 8.77682 16.276 8.76294 15.9847C8.74907 15.6934 8.79574 15.4024 8.9 15.13L9.43 13.7C9.54293 13.3977 9.58106 13.0727 9.54113 12.7525C9.50119 12.4323 9.38438 12.1265 9.20067 11.8613C9.01695 11.596 8.77179 11.3791 8.48609 11.2292C8.2004 11.0792 7.88266 11.0006 7.56 11H3C2.85309 11.0002 2.70793 10.9681 2.57485 10.9059C2.44176 10.8437 2.32402 10.7529 2.23 10.64C2.13367 10.5287 2.0631 10.3975 2.02334 10.2557C1.98359 10.114 1.97561 9.96518 2 9.82Z" fill="#F9A0A6"/>
</svg>
