<svg width="80" height="80" viewBox="0 0 80 80" fill="none" xmlns="http://www.w3.org/2000/svg">
<rect x="3" y="3" width="74" height="74" rx="37" fill="#198754"/>
<path d="M50.9963 44.824C50.5169 44.5843 47.4007 43.1461 46.9213 42.9064C46.4419 42.6667 45.9625 42.6667 45.4831 43.1461C45.0037 43.6255 44.0449 45.0637 43.5655 45.5431C43.3258 46.0225 42.8464 46.0225 42.367 45.7828C40.6891 45.0637 39.0112 44.1049 37.573 42.9064C36.3745 41.7079 35.176 40.2697 34.2172 38.8315C33.9775 38.3521 34.2172 37.8727 34.4569 37.633C34.6966 37.3933 34.9363 36.9139 35.4157 36.6742C35.6554 36.4345 35.8951 35.9551 35.8951 35.7154C36.1348 35.4757 36.1348 34.9963 35.8951 34.7566C35.6554 34.5169 34.4569 31.6405 33.9775 30.4419C33.7378 28.764 33.2584 28.764 32.779 28.764C32.5393 28.764 32.0599 28.764 31.5805 28.764C31.1011 28.764 30.382 29.2434 30.1423 29.4831C28.7041 30.9213 27.985 32.5993 27.985 34.5169C28.2247 36.6742 28.9438 38.8315 30.382 40.7491C33.0187 44.5843 36.3745 47.7004 40.4494 49.618C41.6479 50.0974 42.6067 50.5768 43.8052 50.8165C45.0037 51.2959 46.2022 51.2959 47.6405 51.0562C49.3184 50.8165 50.7566 49.618 51.7154 48.1798C52.1948 47.221 52.1948 46.2622 51.9551 45.3034C51.9551 45.3034 51.4757 45.0637 50.9963 44.824ZM56.9888 23.0112C47.6405 13.6629 32.5393 13.6629 23.191 23.0112C15.5206 30.6816 14.0824 42.427 19.3558 51.7753L16 64L28.7041 60.6442C32.2996 62.5618 36.1348 63.5206 39.97 63.5206C53.1536 63.5206 63.7004 52.9738 63.7004 39.7903C63.9401 33.5581 61.3034 27.5655 56.9888 23.0112ZM50.5169 56.5693C47.4007 58.4869 43.8052 59.6854 39.97 59.6854C36.3745 59.6854 33.0187 58.7266 29.9026 57.0487L29.1835 56.5693L21.7528 58.4869L23.6704 51.2959L23.191 50.5768C17.4382 40.9888 20.3146 29.0037 29.6629 23.0112C39.0112 17.0187 50.9963 20.1348 56.7491 29.2434C62.5019 38.5918 59.8652 50.8165 50.5169 56.5693Z" fill="white"/>
<rect x="3" y="3" width="74" height="74" rx="37" stroke="#E8F3EE" stroke-width="6"/>
</svg>
