<svg width="20" height="20" viewBox="0 0 20 20" fill="none" xmlns="http://www.w3.org/2000/svg">
<path d="M18.9 0.00012207H1.1C0.808262 0.00012207 0.528473 0.116015 0.322183 0.322305C0.115893 0.528595 0 0.808384 0 1.10012V18.9001C0 19.0446 0.0284524 19.1876 0.0837326 19.3211C0.139013 19.4545 0.220038 19.5758 0.322183 19.6779C0.424327 19.7801 0.54559 19.8611 0.679048 19.9164C0.812506 19.9717 0.955546 20.0001 1.1 20.0001H10.68V12.2501H8.08V9.25012H10.68V7.00012C10.6261 6.47188 10.6885 5.93825 10.8627 5.43666C11.0369 4.93507 11.3188 4.47767 11.6885 4.09653C12.0582 3.7154 12.5068 3.41976 13.0028 3.23036C13.4989 3.04096 14.0304 2.96237 14.56 3.00012C15.3383 2.99533 16.1163 3.0354 16.89 3.12012V5.82012H15.3C14.04 5.82012 13.8 6.42012 13.8 7.29012V9.22012H16.8L16.41 12.2201H13.8V20.0001H18.9C19.0445 20.0001 19.1875 19.9717 19.321 19.9164C19.4544 19.8611 19.5757 19.7801 19.6778 19.6779C19.78 19.5758 19.861 19.4545 19.9163 19.3211C19.9715 19.1876 20 19.0446 20 18.9001V1.10012C20 0.955668 19.9715 0.812629 19.9163 0.67917C19.861 0.545712 19.78 0.424449 19.6778 0.322305C19.5757 0.22016 19.4544 0.139135 19.321 0.0838547C19.1875 0.0285745 19.0445 0.00012207 18.9 0.00012207Z" fill="#6C757D"/>
</svg>
