<svg width="33" height="32" viewBox="0 0 33 32" fill="none" xmlns="http://www.w3.org/2000/svg">
<rect x="0.5" width="32" height="32" rx="16" fill="#F0F1F2"/>
<path d="M20.2098 12.29C20.1169 12.1963 20.0063 12.1219 19.8844 12.0711C19.7626 12.0204 19.6318 11.9942 19.4998 11.9942C19.3678 11.9942 19.2371 12.0204 19.1153 12.0711C18.9934 12.1219 18.8828 12.1963 18.7898 12.29L16.4998 14.59L14.2098 12.29C14.0215 12.1017 13.7661 11.9959 13.4998 11.9959C13.2335 11.9959 12.9781 12.1017 12.7898 12.29C12.6015 12.4783 12.4957 12.7337 12.4957 13C12.4957 13.2663 12.6015 13.5217 12.7898 13.71L15.0898 16L12.7898 18.29C12.6961 18.383 12.6217 18.4936 12.5709 18.6154C12.5202 18.7373 12.494 18.868 12.494 19C12.494 19.132 12.5202 19.2627 12.5709 19.3846C12.6217 19.5065 12.6961 19.6171 12.7898 19.71C12.8828 19.8037 12.9934 19.8781 13.1153 19.9289C13.2371 19.9797 13.3678 20.0058 13.4998 20.0058C13.6318 20.0058 13.7626 19.9797 13.8844 19.9289C14.0063 19.8781 14.1169 19.8037 14.2098 19.71L16.4998 17.41L18.7898 19.71C18.8828 19.8037 18.9934 19.8781 19.1153 19.9289C19.2371 19.9797 19.3678 20.0058 19.4998 20.0058C19.6318 20.0058 19.7626 19.9797 19.8844 19.9289C20.0063 19.8781 20.1169 19.8037 20.2098 19.71C20.3036 19.6171 20.378 19.5065 20.4287 19.3846C20.4795 19.2627 20.5056 19.132 20.5056 19C20.5056 18.868 20.4795 18.7373 20.4287 18.6154C20.378 18.4936 20.3036 18.383 20.2098 18.29L17.9098 16L20.2098 13.71C20.3036 13.6171 20.378 13.5065 20.4287 13.3846C20.4795 13.2627 20.5056 13.132 20.5056 13C20.5056 12.868 20.4795 12.7373 20.4287 12.6154C20.378 12.4936 20.3036 12.383 20.2098 12.29ZM23.5698 8.93002C22.6474 7.97492 21.5439 7.21309 20.3239 6.689C19.1038 6.16491 17.7916 5.88905 16.4638 5.87751C15.1361 5.86598 13.8193 6.11899 12.5903 6.6218C11.3613 7.12461 10.2448 7.86714 9.30589 8.80607C8.36696 9.745 7.62443 10.8615 7.12162 12.0905C6.61881 13.3194 6.36579 14.6362 6.37733 15.964C6.38887 17.2918 6.66473 18.604 7.18882 19.8241C7.71291 21.0441 8.47473 22.1476 9.42984 23.07C10.3523 24.0251 11.4557 24.7869 12.6758 25.311C13.8958 25.8351 15.208 26.111 16.5358 26.1225C17.8636 26.1341 19.1804 25.881 20.4094 25.3782C21.6383 24.8754 22.7549 24.1329 23.6938 23.194C24.6327 22.255 25.3752 21.1385 25.8781 19.9096C26.3809 18.6806 26.6339 17.3638 26.6223 16.036C26.6108 14.7082 26.3349 13.396 25.8109 12.176C25.2868 10.9559 24.5249 9.85249 23.5698 8.93002ZM22.1598 21.66C20.8519 22.9694 19.1304 23.7848 17.2886 23.9673C15.4469 24.1498 13.5988 23.6881 12.0594 22.6608C10.5199 21.6335 9.38419 20.1042 8.84581 18.3335C8.30742 16.5628 8.39964 14.6602 9.10675 12.9498C9.81386 11.2394 11.0921 9.82717 12.7237 8.95358C14.3553 8.07999 16.2394 7.79915 18.0548 8.15889C19.8703 8.51863 21.5049 9.49671 22.6801 10.9265C23.8553 12.3562 24.4984 14.1493 24.4998 16C24.5034 17.0513 24.2984 18.0929 23.8968 19.0644C23.4951 20.0359 22.9047 20.9182 22.1598 21.66Z" fill="#6C757D"/>
</svg>
